<svg id="Capa_1" xmlns="http://www.w3.org/2000/svg" viewBox="0 0 65 80"><style>.st0{enable-background:new}.st1{fill:#fff}.st2{fill:#fbfbfa}.st3{fill:#f8f8f7}</style><g id="形状_1_19_" class="st0"><path d="M7.5 18.8l4.7 50.7L32.5 75l20.3-5.5 4.7-50.7z" id="形状_1"/></g><g id="形状_1_18_" class="st0"><path d="M32.5 22.9V70.7L49 66.2l3.8-43.3z" id="形状_1_1_"/></g><g id="形状_1_17_" class="st0"><path class="st1" d="M32.4 57.7l-6.8-1.8-.4-4.9h-6.3l.9 9.6 12.7 3.8v-6.8z" id="形状_1_2_"/></g><g id="形状_1_16_" class="st0"><path class="st2" d="M32.5 41.6v6.1h7.6l-.5 8-7.1 1.9v6.8l12.8-3.8 1.7-19z" id="形状_1_3_"/></g><g id="形状_1_15_" class="st0"><path class="st1" d="M18 41.6l.5 6.1h14v-6.1z" id="形状_1_4_"/></g><g id="形状_1_14_" class="st0"><path class="st1" d="M18 41.6h14.5v-6.1z" id="形状_1_5_"/></g><g id="形状_1_13_" class="st0"><path class="st1" d="M33.3 35.2l-.8.3v6.1l14.9-6.4z" id="形状_1_6_"/></g><g id="形状_1_12_" class="st0"><path class="st1" d="M16.7 29l.8 6.2h15V29z" id="形状_1_7_"/></g><g id="形状_1_11_" class="st0"><path class="st3" d="M32.5 35.2L48 29H32.5v6.2zm0 0h14.9L48 29l-15.5 6.2z" id="形状_1_8_"/></g><g id="形状_1_10_" class="st0"><path d="M17.7 14.3h7.7v-3H21v-3h4.4V5h-7.7v9.3zm11-6c1 1 1.6 1.5 3.1 3h-3.1v3h7.7v-3l-3.1-3h3.1V5h-7.7v3.3zM47.3 5h-7.7v3.3c1 1 1.6 1.5 3.1 3h-3.1v3h7.7v-3l-3.1-3h3.1V5z" id="形状_1_9_"/></g></svg>