<svg id="Capa_1" xmlns="http://www.w3.org/2000/svg" viewBox="26.5 -19 65 80"><style>.st0{fill:#fff}</style><path d="M38.7 50.4L34.2-.2h49.6l-4.5 50.6L59 56z"/><path d="M59 51.7l16.4-4.6 3.9-43.2H59z"/><path class="st0" d="M59 22.7h-8.2l-.6-6.4H59v-6.2H43.4l.2 1.7 1.5 17.1H59zM59 38.8l-6.9-1.9-.5-4.9H45.4l.9 9.7L59 45.3z"/><path d="M38.8-14H42v3.1h2.9V-14H48v9.4h-3.2v-3.2H42v3.2h-3.2V-14zM52.2-10.9h-2.8V-14h8.7v3.1h-2.8v6.3h-3.2l.1-6.3zM59.5-14h3.3l2 3.3 2-3.3h3.3v9.4H67v-4.6l-2.2 3.4h-.1l-2.2-3.4v4.7h-3.1l.1-9.5zM71.7-14h3.2v6.3h4.4v3.1h-7.6V-14z"/><path class="st0" d="M59 22.7v6.2h7.6l-.7 8-6.9 1.9v6.5l12.7-3.6.1-1 1.5-16.4.1-1.6h-1.7zM59 10.1V16.3h15l.1-1.4.3-3.1.1-1.7z"/></svg>