<?xml version="1.0" encoding="utf-8"?>
<!-- Generator: Adobe Illustrator 23.0.6, SVG Export Plug-In . SVG Version: 6.00 Build 0)  -->
<svg version="1.1" id="Capa_1" xmlns="http://www.w3.org/2000/svg" xmlns:xlink="http://www.w3.org/1999/xlink" x="0px" y="0px"
	 viewBox="0 0 80 80" style="enable-background:new 0 0 80 80;" xml:space="preserve">
<path d="M68.9,73.7H11.1c-2.6,0-4.8-2.1-4.8-4.8V11.1c0-2.6,2.1-4.8,4.8-4.8h57.8c2.6,0,4.8,2.1,4.8,4.8v57.8
	C73.7,71.6,71.6,73.7,68.9,73.7z M11.1,8.8c-1.3,0-2.3,1-2.3,2.3v57.8c0,1.3,1,2.3,2.3,2.3h57.8c1.3,0,2.3-1,2.3-2.3V11.1
	c0-1.3-1-2.3-2.3-2.3H11.1z"/>
<g>
	<path d="M35.1,49H27l-1.3,4.4h-6L28,27.9h6.2l8.3,25.5h-6L35.1,49z M33.6,43.9l-2.5-8.5l-2.5,8.5H33.6z"/>
	<path d="M49,45.7c0,2.6,1.1,4,3.2,4c1.1,0,2-0.5,2.6-1.6h5c-1,4-3.6,5.9-7.6,5.9c-1.2,0-2.4-0.2-3.4-0.7c-1-0.4-1.9-1.1-2.7-1.9
		c-0.7-0.8-1.3-1.8-1.7-2.9c-0.4-1.1-0.6-2.4-0.6-3.8c0-1.4,0.2-2.7,0.6-3.9c0.4-1.2,0.9-2.1,1.6-3c0.7-0.8,1.6-1.4,2.6-1.9
		c1-0.4,2.1-0.7,3.4-0.7c1.2,0,2.4,0.2,3.4,0.7c1,0.4,1.8,1.1,2.5,1.9c0.7,0.8,1.2,1.9,1.6,3.1c0.4,1.2,0.5,2.6,0.5,4.1v0.6H49V45.7
		z M55.1,42.2c-0.2-0.9-0.5-1.5-1.1-2.1c-0.5-0.5-1.2-0.8-2-0.8s-1.5,0.2-2,0.7s-0.8,1.2-1,2.1L55.1,42.2L55.1,42.2z"/>
</g>
</svg>
