<svg xmlns="http://www.w3.org/2000/svg" viewBox="0 0 80 80"><path d="M68.9 73.7H11.1c-2.6 0-4.8-2.1-4.8-4.8V11.1c0-2.6 2.1-4.8 4.8-4.8h57.8c2.6 0 4.8 2.1 4.8 4.8v57.8c0 2.7-2.1 4.8-4.8 4.8zM11.1 8.8c-1.3 0-2.3 1-2.3 2.3v57.8c0 1.3 1 2.3 2.3 2.3h57.8c1.3 0 2.3-1 2.3-2.3V11.1c0-1.3-1-2.3-2.3-2.3H11.1z"/><path d="M31.8 46.7L30 53.1h-5.9l7.7-25.2h7.5l7.8 25.2H41l-2-6.4h-7.2zm6.4-4.3L36.6 37c-.4-1.5-.9-3.4-1.3-4.9h-.1c-.4 1.5-.7 3.4-1.2 4.9l-1.5 5.4h5.7zM55.9 29.7c0 1.6-1.2 2.8-3.1 2.8-1.8 0-3-1.3-3-2.8 0-1.6 1.2-2.9 3-2.9 1.9.1 3.1 1.3 3.1 2.9zm-5.8 23.4V34.8h5.7v18.3h-5.7z"/></svg>