<?xml version="1.0" encoding="utf-8"?>
<!-- Generator: Adobe Illustrator 23.0.6, SVG Export Plug-In . SVG Version: 6.00 Build 0)  -->
<svg version="1.1" id="Capa_1" xmlns="http://www.w3.org/2000/svg" xmlns:xlink="http://www.w3.org/1999/xlink" x="0px" y="0px"
	 viewBox="0 0 80 80" style="enable-background:new 0 0 80 80;" xml:space="preserve">
<path d="M68.9,73.7H11.1c-2.6,0-4.8-2.1-4.8-4.8V11.1c0-2.6,2.1-4.8,4.8-4.8h57.8c2.6,0,4.8,2.1,4.8,4.8v57.8
	C73.7,71.6,71.6,73.7,68.9,73.7z M11.1,8.8c-1.3,0-2.3,1-2.3,2.3v57.8c0,1.3,1,2.3,2.3,2.3h57.8c1.3,0,2.3-1,2.3-2.3V11.1
	c0-1.3-1-2.3-2.3-2.3H11.1z"/>
<g>
	<path d="M35,48.4h-8.2l-1.3,4.5h-6.1l8.4-25.6h6.2l8.4,25.6h-6.1L35,48.4z M33.5,43.3L31,34.8l-2.6,8.5H33.5z"/>
	<path d="M44.8,35.4H50v2.2c0.7-1,1.4-1.7,2.2-2.1c0.7-0.4,1.6-0.5,2.6-0.5c1,0,1.9,0.2,2.7,0.6c0.7,0.4,1.4,1,1.9,1.7
		c0.4,0.6,0.7,1.2,0.9,2c0.2,0.7,0.2,1.6,0.2,2.5v11.1h-5.3V44c0-0.9-0.1-1.6-0.2-2.1c-0.1-0.5-0.3-1-0.6-1.3
		c-0.2-0.3-0.5-0.5-0.8-0.6c-0.3-0.1-0.6-0.2-0.9-0.2c-0.9,0-1.6,0.3-2.1,0.9c-0.5,0.6-0.7,1.5-0.7,2.7v9.3h-5.3V35.4z"/>
</g>
</svg>
