<?xml version="1.0" encoding="utf-8"?>
<!-- Generator: Adobe Illustrator 23.0.6, SVG Export Plug-In . SVG Version: 6.00 Build 0)  -->
<svg version="1.1" id="Capa_1" xmlns="http://www.w3.org/2000/svg" xmlns:xlink="http://www.w3.org/1999/xlink" x="0px" y="0px"
	 viewBox="0 0 80 80" style="enable-background:new 0 0 80 80;" xml:space="preserve">
<style type="text/css">
	.st0{fill-rule:evenodd;clip-rule:evenodd;fill:#181616;}
</style>
<path class="st0" d="M40,8.4C22.1,8.4,7.5,22.9,7.5,40.8c0,14.3,9.3,26.5,22.2,30.8c1.6,0.3,2.2-0.7,2.2-1.6c0-0.8,0-2.8,0-5.5
	c-9,2-10.9-4.3-10.9-4.3c-1.5-3.7-3.6-4.7-3.6-4.7c-2.9-2,0.2-2,0.2-2c3.3,0.2,5,3.3,5,3.3c2.9,5,7.6,3.5,9.4,2.7
	c0.3-2.1,1.1-3.5,2.1-4.3c-7.2-0.8-14.8-3.6-14.8-16c0-3.5,1.3-6.4,3.3-8.7c-0.3-0.8-1.4-4.1,0.3-8.6c0,0,2.7-0.9,8.9,3.3
	c2.6-0.7,5.4-1.1,8.1-1.1c2.8,0,5.5,0.4,8.1,1.1c6.2-4.2,8.9-3.3,8.9-3.3c1.8,4.5,0.7,7.8,0.3,8.6c2.1,2.3,3.3,5.2,3.3,8.7
	c0,12.5-7.6,15.2-14.8,16c1.2,1,2.2,3,2.2,6c0,4.3,0,7.8,0,8.9c0,0.9,0.6,1.9,2.2,1.6c12.9-4.3,22.2-16.5,22.2-30.8
	C72.5,22.9,57.9,8.4,40,8.4z"/>
</svg>
