<svg xmlns="http://www.w3.org/2000/svg" viewBox="0 0 42 42"><path d="M13.2 28.7c0 .8.7 1.3 2.1 1.3 1.3 0 1.9-.4 1.9-1.3 0-.8-.7-1.2-2-1.2-1.3-.1-2 .4-2 1.2zM31.7 5H10.3C7.4 5 5 7.4 5 10.3v21.3c0 2.9 2.4 5.3 5.3 5.3h21.3c2.9 0 5.3-2.4 5.3-5.3V10.3C37 7.4 34.6 5 31.7 5zM19.9 17.8c-.2.1-.6.2-1 .3.1.4.2.7.2 1 0 1-.3 1.9-.9 2.7-.6.8-1.4 1.2-2.4 1.4-.7.1-1 .4-1 1 0 .2.1.4.3.6.3.3.7.5 1.2.6 2.3.4 3.5 1.3 3.5 2.9 0 2.5-1.5 3.8-4.5 3.8-1.2 0-2.3-.2-3-.7-1-.6-1.5-1.4-1.5-2.6 0-1.4.8-2.3 2.3-2.8-.6-.3-.8-.9-.8-1.6 0-.9.3-1.5.8-1.7-.5-.2-1-.6-1.4-1.2-.5-.7-.7-1.4-.7-2.2 0-1.2.4-2.1 1.2-2.9.8-.7 1.7-1.1 2.9-1.1.8 0 1.5.2 2.2.6.8 0 1.7-.2 2.7-.6v2.5h-.1zm3.9 8.4H21V17v-1.6h2.8v10.8zM23.6 13c-.3.4-.7.5-1.2.5s-.9-.2-1.2-.5c-.3-.4-.5-.8-.5-1.3s.2-.9.5-1.3.7-.5 1.2-.5.8.2 1.2.5c.3.4.5.8.5 1.3s-.1.9-.5 1.3zm7.7 12.9c-.6.3-1.3.5-2.2.5-1.2 0-2-.4-2.5-1.3-.3-.6-.5-1.6-.5-3v-4.4h-.4c-.2 0-.5 0-.8.1v-2.4h1.2v-1c0-.5 0-.8-.1-1.1h2.8c0 .3-.1.7-.1 1v1H31v2.4h-2.1v4.5c0 1.1.4 1.6 1.1 1.6.5 0 1-.1 1.4-.4v2.5h-.1zM15 17.5c-1 0-1.5.6-1.5 1.8 0 1.1.5 1.7 1.5 1.7s1.5-.6 1.5-1.7c0-.5-.1-.9-.3-1.2-.3-.4-.7-.6-1.2-.6z"/></svg>