<svg xmlns="http://www.w3.org/2000/svg" viewBox="0 0 80 80"><path d="M68.9 73.7H11.1c-2.6 0-4.8-2.1-4.8-4.8V11.1c0-2.6 2.1-4.8 4.8-4.8h57.8c2.6 0 4.8 2.1 4.8 4.8v57.8c0 2.7-2.1 4.8-4.8 4.8zM11.1 8.8c-1.3 0-2.3 1-2.3 2.3v57.8c0 1.3 1 2.3 2.3 2.3h57.8c1.3 0 2.3-1 2.3-2.3V11.1c0-1.3-1-2.3-2.3-2.3H11.1z"/><path d="M31.6 27.8V53h-5.7V27.8h5.7zM54 26.5v21.1c0 2.1.1 4.2.1 5.5H49l-.3-2.7h-.1c-1.2 2.1-3.4 3.1-5.7 3.1-4.3 0-7.8-3.7-7.8-9.4 0-6.2 3.8-9.7 8.2-9.7 2.2 0 4 .8 4.8 2.1h.1v-9.9H54zm-5.7 16c0-.3 0-.7-.1-1-.3-1.5-1.6-2.8-3.3-2.8-2.6 0-3.9 2.3-3.9 5.2 0 3.1 1.5 5.1 3.9 5.1 1.6 0 3-1.1 3.3-2.7.1-.4.2-.8.2-1.3v-2.5z"/></svg>