<?xml version="1.0" encoding="utf-8"?>
<!-- Generator: Adobe Illustrator 19.2.0, SVG Export Plug-In . SVG Version: 6.00 Build 0)  -->
<svg version="1.1" id="Capa_1" xmlns="http://www.w3.org/2000/svg" xmlns:xlink="http://www.w3.org/1999/xlink" x="0px" y="0px"
	 viewBox="0 0 115 181.8" style="enable-background:new 0 0 115 181.8;" xml:space="preserve">
<style type="text/css">
	.st0{fill:#333333;}
	.st1{fill:#FCEE21;}
</style>
<path class="st0" d="M15.2,25.5l-9.3,1.8C5.4,27.4,5,27.5,5.1,28s0.5,0.4,1,0.3l9.3-1.8c0.5-0.1,0.9-0.2,0.8-0.7
	C16.2,25.3,15.7,25.3,15.2,25.5z"/>
<path class="st0" d="M17.3,18.5l-7.9-5.3c-0.4-0.3-1-0.2-1.3,0.3c-0.3,0.4-0.2,1,0.3,1.3l7.9,5.3c0.4,0.3,1,0.2,1.3-0.3
	C17.8,19.4,17.7,18.8,17.3,18.5z"/>
<path class="st0" d="M30.7,17.2L36,9.3c0.3-0.4,0.2-1-0.3-1.3c-0.4-0.3-1-0.2-1.3,0.3l-5.3,7.9c-0.3,0.4-0.2,1,0.3,1.3
	C29.8,17.8,30.4,17.7,30.7,17.2z"/>
<path class="st0" d="M33,22.5c0.1,0.5,0.5,0.4,1,0.3l9.3-1.8c0.5-0.1,0.9-0.2,0.8-0.7s-0.5-0.4-1-0.3l-9.3,1.8
	C33.3,21.9,32.9,22,33,22.5z"/>
<path class="st0" d="M22.6,16.3c0.5-0.1,0.9-0.6,0.8-1.1l-1.8-9.3c-0.1-0.5-0.7-0.8-1.2-0.7s-0.9,0.6-0.8,1.1l1.8,9.3
	C21.5,16.1,22.1,16.4,22.6,16.3z"/>
<path class="st1" d="M51.6,66c-0.1,0-0.2-0.1-0.4-0.1c-0.1,0-3.4,0-8.8,1.2c-4.6,1-7.3,2.1-8.1,2.4c-6.6-3.2-10.3-6.9-11.2-11.3
	L22,53c-0.3-1.5,0.6-3.1,2.2-3.4c0.3-0.1,0.7-0.1,1,0l0.8,3.6c0.1,0.5,0.6,0.8,1.1,0.7c0.5-0.1,0.8-0.6,0.7-1.1l-5.8-27
	c-0.3-1.5,0.6-3.1,2.2-3.4c1.5-0.3,3.1,0.7,3.4,2.2l2.8,13v1.6l0.6,4.5l0,0l0.4,0.5c0.1,0.5,0.7,0.3,1.2,0.2
	c0.5-0.1,0.9-0.9,0.8-1.4L33,41.3l-0.9-4c-0.3-1.5,0.7-3.1,2.2-3.4c1.5-0.3,3.1,0.6,3.4,2.2l1.4,6.4c0.1,0.5,0.6,0.8,1.1,0.7
	c0.5-0.1,0.8-0.6,0.7-1.1l-1.4-6.5c-0.1-0.2-0.1-0.5-0.2-0.7c0.3-0.2,0.6-0.3,1-0.4c1.5-0.3,3.1,0.7,3.4,2.2l1.6,7.4
	c0.1,0.5,0.6,0.8,1.1,0.7c0.5-0.1,0.8-0.6,0.7-1.1l-1.4-6.3c0.3-0.2,0.6-0.3,0.9-0.4c1.5-0.3,3.1,0.6,3.4,2.2l2.3,10.5
	C53.9,56.6,53.5,63.1,51.6,66z"/>
<path class="st0" d="M105,87.5c-2.9-6.1-6.9-10.9-12-14.3C87.9,69.7,82.1,68,75.8,68c-8.7,0-15.5,2.2-20,6.5c0-0.3-0.1-0.5-0.1-0.7
	s-0.1-0.5-0.2-0.9l-1-4.7c-0.1-0.6-0.5-1.1-1-1.5c2.1-3.5,2.4-10,0.8-17.4L52,38.8c-0.6-2.6-3.1-4.2-5.6-3.6c-0.4,0.1-0.7,0.2-1,0.4
	c-0.9-2.1-3.1-3.4-5.4-2.9c-0.6,0.1-1.1,0.4-1.6,0.7c-1.1-1.1-2.7-1.7-4.4-1.4c-1.1,0.2-1.9,0.8-2.6,1.6l-2-9.3
	c-0.6-2.6-3.1-4.2-5.6-3.6c-2.6,0.6-4.2,3.1-3.6,5.7l4.6,21.5c-0.3,0-0.6,0-1,0.1c-2.6,0.6-4.2,3.1-3.6,5.7l1.1,5.2
	c1,4.8,4.8,8.8,11.4,12.2c-0.5,0.6-0.7,1.4-0.6,2.1c0,0,1.3,6.1,1.4,6.2c0.1,0.8,0.2,1.5,0.2,1.9c0.1,1.3,0.1,4.3,0.1,9v91.5l23-6.2
	v-21.4c0-1.2,0.2-2.5,0.1-3.7c0-0.5,0.1-1,0-1.5c4.8,2.5,10.5,3.7,16.7,3.7c4.9,0,9.3-0.8,13.1-2.5c3.8-1.7,7.7-4.6,11.6-8.7
	c3.9-4.1,6.7-9,8.4-14.4s2.5-9.8,2.5-19.1C109.3,98.4,107.9,93.5,105,87.5z M51.6,66c-0.1,0-0.2-0.1-0.4-0.1c-0.1,0-3.4,0-8.8,1.2
	c-4.6,1-7.3,2.1-8.1,2.4c-6.6-3.2-10.3-6.9-11.2-11.3L22,53c-0.3-1.5,0.6-3.1,2.2-3.4c0.3-0.1,0.7-0.1,1,0l0.8,3.6
	c0.1,0.5,0.6,0.8,1.1,0.7c0.5-0.1,0.8-0.6,0.7-1.1l-5.8-27c-0.3-1.5,0.6-3.1,2.2-3.4c1.5-0.3,3.1,0.7,3.4,2.2l2.8,13v1.6l0.6,4.5
	l0,0l0.4,0.5c0.1,0.5,0.7,0.3,1.2,0.2c0.5-0.1,0.9-0.9,0.8-1.4L33,41.3l-0.9-4c-0.3-1.5,0.7-3.1,2.2-3.4c1.5-0.3,3.1,0.6,3.4,2.2
	l1.4,6.4c0.1,0.5,0.6,0.8,1.1,0.7c0.5-0.1,0.8-0.6,0.7-1.1l-1.4-6.5c-0.1-0.2-0.1-0.5-0.2-0.7c0.3-0.2,0.6-0.3,1-0.4
	c1.5-0.3,3.1,0.7,3.4,2.2l1.6,7.4c0.1,0.5,0.6,0.8,1.1,0.7c0.5-0.1,0.8-0.6,0.7-1.1l-1.4-6.3c0.3-0.2,0.6-0.3,0.9-0.4
	c1.5-0.3,3.1,0.6,3.4,2.2l2.3,10.5C53.9,56.6,53.5,63.1,51.6,66z M79.7,127.2c-2.2,3.8-5.8,5.6-11,5.6c-2.2,0-4.5-0.4-6.4-1.2
	c-1.8-0.8-3.4-1.9-5.4-3.2V93.9C60.9,90,65.6,88,71,88c5,0,8.3,1.9,9.7,5.9c1.5,4.2,2.3,7.6,2.3,16C83,119.5,81.9,123.3,79.7,127.2z
	"/>
</svg>
