<svg id="Capa_1" xmlns="http://www.w3.org/2000/svg" xmlns:xlink="http://www.w3.org/1999/xlink" viewBox="0 0 123 250"><style>.st0{clip-path:url(#SVGID_2_)}.st1{clip-path:url(#SVGID_4_);enable-background:new}.st2{clip-path:url(#SVGID_6_)}.st3{clip-path:url(#SVGID_8_)}.st4{clip-path:url(#SVGID_10_);fill:#363636}.st5{clip-path:url(#SVGID_12_)}.st6{clip-path:url(#SVGID_14_);fill:#fff}.st7{clip-path:url(#SVGID_16_)}.st8{clip-path:url(#SVGID_18_);fill:#f7ec41}.st9{clip-path:url(#SVGID_20_)}.st10{clip-path:url(#SVGID_22_);fill:#363636}.st11{clip-path:url(#SVGID_24_)}.st12{clip-path:url(#SVGID_26_);fill:#363636}.st13{clip-path:url(#SVGID_28_)}.st14{clip-path:url(#SVGID_30_);fill:#363636}.st15{clip-path:url(#SVGID_32_)}.st16{clip-path:url(#SVGID_34_);enable-background:new}.st17{clip-path:url(#SVGID_36_)}.st18{clip-path:url(#SVGID_38_)}.st19{clip-path:url(#SVGID_40_);fill:#363636}.st20{fill-rule:evenodd;clip-rule:evenodd;fill:#363636}.st21{clip-path:url(#SVGID_42_)}.st22{clip-path:url(#SVGID_44_);fill:#363636}.st23{clip-path:url(#SVGID_46_)}.st24{clip-path:url(#SVGID_48_);fill:#363636}</style><defs><path id="SVGID_1_" d="M106.5 2.5H19.3v245h87.2"/></defs><clipPath id="SVGID_2_"><use xlink:href="#SVGID_1_" overflow="visible"/></clipPath><g class="st0"><defs><path id="SVGID_3_" d="M-586.9-103.6H459.8v1908H-586.9z"/></defs><clipPath id="SVGID_4_"><use xlink:href="#SVGID_3_" overflow="visible"/></clipPath><g class="st1"><defs><path id="SVGID_5_" d="M19.3 129.7h87.2v117.8H19.3z"/></defs><clipPath id="SVGID_6_"><use xlink:href="#SVGID_5_" overflow="visible"/></clipPath><g class="st2"><defs><path id="SVGID_7_" d="M26.8 151.4c19.3-.4 37.6-18.5 38.3-18.6 2-2.4 5.7-2.8 7.9-2.3 14.6 4.5 28.9 29.9 32.7 38.4 1.9 4.3.1 8.9-4.1 11.5-1.4.9-2.9 1-3.6 1.1-2.9.3-6.1-1.6-7.1-4.5-2.7-4.9-5.5-10.6-8.9-15.5l-.5 33.5 19.4 39.7c1.9 4.3.1 8.9-4.1 11.5-1.4.9-2.9 1-3.6 1.1-2.9.3-6.1-1.6-7.1-4.5L60 198.5l-13.5 10.4-.3 27.5c-.3 4.5-3.6 8.5-8.9 8.3-4.5-.3-8.5-3.6-8.3-8.9l.6-32c-.3-2.9 1-5.3 3-7L50.8 184l-4.9-19c-7.1 2.9-9.9 4-18.1 4.1-4.5-.3-8.5-3.6-8.2-8.1-1.3-5.8 2.7-9.9 7.2-9.6"/></defs><clipPath id="SVGID_8_"><use xlink:href="#SVGID_7_" overflow="visible"/></clipPath><g class="st3"><defs><path id="SVGID_9_" d="M19.3 1.8h87.2v245.7H19.3z"/></defs><clipPath id="SVGID_10_"><use xlink:href="#SVGID_9_" overflow="visible"/></clipPath><path class="st4" d="M15.7 126.7h94.4v124.4H15.7z"/></g></g></g></g><defs><path id="SVGID_11_" d="M42.4 136.5c0-.8.7-.8 0 0 .7-.8 7.1-2.9 17.4-4.7 9.5-1.7 14.7-1.4 16.9-1.6 10.1-10.6 13.7-19.9 12.1-28.7l-1.7-10.2c-.3-2.9-3.5-5.6-6.4-4.6-.7.1-1.5.1-2.1.9l1.4 7.3c.1.7-.6 1.5-1.3 2.4-.7.8-1.5-.6-2.3-1.3l-9-54.1c-.3-2.9-3.5-5.6-6.4-4.6-2.9.3-4.9 3.4-4.6 6.4l4 25.6 1 2.9 2.3 8.7-.6 1.5c.1.7-1.4.9-2.1.9-.7.1-2.8-5.7-2.8-5.7l-1.5-8c-.3-2.9-3.4-4.9-6.4-4.6-2.9.3-5.6 3.5-4.6 6.4l2 12.4c.1.7-.6 1.5-1.3 2.3-.7.1-1.5-.6-2.3-1.3l-2-13.2-.1-1.2c-.7.1-1.5.1-2.2.2-2.9.3-4.9 3.4-4.6 6.4l2.2 14.7c.1.7-.6 1.5-1.3 2.4-.7.8-1.5-.6-2.3-1.3l-1.9-12.4c-.7.1-1.5.1-2.2.2-3.1.2-5.7 3.4-4.7 6.3l3.5 21.2c2.7 12.4 8.4 24.5 13.9 28.4"/></defs><clipPath id="SVGID_12_"><use xlink:href="#SVGID_11_" overflow="visible"/></clipPath><g class="st5"><defs><path id="SVGID_13_" d="M-586.9-103.6H459.8v1908H-586.9z"/></defs><clipPath id="SVGID_14_"><use xlink:href="#SVGID_13_" overflow="visible"/></clipPath><path class="st6" d="M21.2 33.5h71.6v106.7H21.2z"/></g><defs><path id="SVGID_15_" d="M40.1 136.7c-.1-.7.6-.8 0 0 .7-.8 7.1-2.9 17.4-4.7 9.5-1.7 14.7-1.4 16.9-1.6 10.1-10.6 13.7-19.9 12.1-28.7l-1.7-10.2c-.3-2.9-3.5-5.6-6.4-4.6-.7.1-1.5.1-2.1.9l1.4 7.3c.1.7-.6 1.5-1.3 2.4-.7.8-1.5-.6-2.3-1.3l-9-54.1c-.3-2.9-3.5-5.6-6.4-4.6-2.9.3-4.9 3.4-4.6 6.4l4 25.6 1 2.9 2.3 8.7-.6 1.5c.1.7-1.4.9-2.1.9-.7.1-1.9-.7-2-1.5l-.8-4.2-1.5-8c-.3-2.9-3.4-4.9-6.4-4.6-2.9.3-5.6 3.5-4.6 6.4l2 12.4c.1.7-.6 1.5-1.3 2.3-.7.1-1.5-.6-2.3-1.3l-2-13.2c-.1-.7-.1-.7-.1-1.5-.7.1-1.5.1-2.2.2-2.9.3-4.9 3.4-4.6 6.4l2.1 15c.1.7-.6 1.5-1.3 2.4-.7.8-1.5-.6-2.3-1.3l-1.9-12.4c-.7.1-1.5.1-2.2.2-2.9.3-5.6 3.5-4.6 6.4l3.5 21.2c2.7 12.3 8.3 24.4 13.9 28.3"/></defs><clipPath id="SVGID_16_"><use xlink:href="#SVGID_15_" overflow="visible"/></clipPath><g class="st7"><defs><path id="SVGID_17_" d="M-586.9-103.6H459.8v1908H-586.9z"/></defs><clipPath id="SVGID_18_"><use xlink:href="#SVGID_17_" overflow="visible"/></clipPath><path class="st8" d="M18.8 33.7h71.6v106.7H18.8z"/></g><defs><path id="SVGID_19_" d="M41.2 154.4c-11.5-4.1 46-.7 45.8-2.2-.1-.7-1-2.1-1.1-3.6l-2-12.4c-.1-1.5-1-2.9-2.6-3.5 9.3-11.3 13.5-21.4 11.9-30.9l-1.7-10.2c-.5-5.2-5.3-8.4-10.4-7.9-.7.1-1.5.1-2.2.2l-7.2-43.2c-.5-5.1-5.3-8.4-10.4-7.9-5.2.5-8.4 5.3-7.9 10.4l3.3 18.3c-2.3-.5-3.8-1.1-6-.9-2.9 1-5.7 2.8-6.9 5.9-1.5-.6-2.3-.5-3.7-.4-5.2.5-7.7 4.5-8 9-.7.1-1.5.1-2.2.2-5.2.5-8.4 5.3-7.9 10.4l3.5 21.2c2.2 14.7 7.8 26.7 14.2 31.3-.6 1.5-.5 2.3-.4 3.8l1.7 9.5c.1.7.1.7.1 1.5 0 .7 0 .7.1 1.4m1.2-17.9c-5.6-3.9-11.2-16-13.9-28.4L25 86.9c-1-2.9 1.6-6.1 4.6-6.4.7-.1 1.5-.1 2.2-.2l1.9 12.4c.8.7 1.7 2.1 2.3 1.3.7-.8 1.3-1.6 1.3-2.4L35.2 77c-.3-2.9 1.6-6.1 4.6-6.4.7-.1 1.5-.1 2.2-.2l.1 1.5 2 13.2c.8.7 1.6 1.3 2.3 1.3.7-.8 1.3-1.6 1.3-2.3l-2-12.4c-1-2.9 1.6-6.1 4.6-6.4 2.9-.3 6.1 1.6 6.4 4.6L59 82.5s3.5.4 3.5-.3l-6.1-38.3c-.3-2.9 1.6-6.1 4.6-6.4 2.9-1 6.1 1.6 6.4 4.6l9 54.1c.8.7 1.7 2.1 2.3 1.3.7-.8 1.3-1.6 1.3-2.4l-1.4-7.3c.7-.8 1.4-.9 2.1-.9 2.9-1 6.1 1.6 6.4 4.6l1.7 10.2c1.6 8.8-2 18-12.1 28.7-2.2.2-7.4 0-16.9 1.6-10.2 1.6-16.7 3.7-17.4 4.5.7-.8 0-.8 0 0"/></defs><clipPath id="SVGID_20_"><use xlink:href="#SVGID_19_" overflow="visible"/></clipPath><g class="st9"><defs><path id="SVGID_21_" d="M-586.9-103.6H459.8v1908H-586.9z"/></defs><clipPath id="SVGID_22_"><use xlink:href="#SVGID_21_" overflow="visible"/></clipPath><path class="st10" d="M18.2 29.1h79V158h-79z"/></g><g><defs><path id="SVGID_23_" d="M70.5 24.6L81.1 9.1c.5-.8 1.7-1.1 2.6-.4.8.5 1.1 1.7.4 2.6L73.5 26.8c-.5.9-1.7 1.1-2.6.4-.6-.6-.9-1.8-.4-2.6"/></defs><clipPath id="SVGID_24_"><use xlink:href="#SVGID_23_" overflow="visible"/></clipPath><g class="st11"><defs><path id="SVGID_25_" d="M-586.9-103.6H459.8v1908H-586.9z"/></defs><clipPath id="SVGID_26_"><use xlink:href="#SVGID_25_" overflow="visible"/></clipPath><path class="st12" d="M66.6 4.6h21.5v26.6H66.6z"/></g></g><g><defs><path id="SVGID_27_" d="M45.1 32.1L29.5 21.5c-.8-.5-1.1-1.7-.4-2.6.5-.9 1.7-1.1 2.6-.4l15.5 10.6c.8.5 1.1 1.7.4 2.6-.5.8-1.6 1.1-2.5.4"/></defs><clipPath id="SVGID_28_"><use xlink:href="#SVGID_27_" overflow="visible"/></clipPath><g class="st13"><defs><path id="SVGID_29_" d="M-586.9-103.6H459.8v1908H-586.9z"/></defs><clipPath id="SVGID_30_"><use xlink:href="#SVGID_29_" overflow="visible"/></clipPath><path class="st14" d="M25.1 14.5h26.6v21.6H25.1z"/></g></g><g><defs><path id="SVGID_31_" d="M106.5 2.5H19.3v245h87.2"/></defs><clipPath id="SVGID_32_"><use xlink:href="#SVGID_31_" overflow="visible"/></clipPath><g class="st15"><defs><path id="SVGID_33_" d="M-586.9-103.6H459.8v1908H-586.9z"/></defs><clipPath id="SVGID_34_"><use xlink:href="#SVGID_33_" overflow="visible"/></clipPath><g class="st16"><defs><path id="SVGID_35_" d="M52.7 1.8h8.7v23.3h-8.7z"/></defs><clipPath id="SVGID_36_"><use xlink:href="#SVGID_35_" overflow="visible"/></clipPath><g class="st17"><defs><path id="SVGID_37_" d="M59.2 24.5c-1 .2-2.1-.4-2.3-1.4L53.4 4.7c-.2-1 .7-2 1.7-2.2 1-.2 2.1.4 2.3 1.4L61 22.3c.1 1-.8 2-1.8 2.2"/></defs><clipPath id="SVGID_38_"><use xlink:href="#SVGID_37_" overflow="visible"/></clipPath><g class="st18"><defs><path id="SVGID_39_" d="M19.3 1.8h87.2v245.7H19.3z"/></defs><clipPath id="SVGID_40_"><use xlink:href="#SVGID_39_" overflow="visible"/></clipPath><path class="st19" d="M49.7-1.1h14.8v29.3H49.7z"/></g></g></g></g></g><circle class="st20" cx="60.9" cy="82.1" r="1.7"/><g><defs><path id="SVGID_41_" d="M98.4 35.2L80 38.7c-1 .2-2-.4-2.1-1.5-.2-1 .4-2 1.5-2.1l18.4-3.5c1-.2 2 .4 2.1 1.5.2.9-.4 1.9-1.5 2.1"/></defs><clipPath id="SVGID_42_"><use xlink:href="#SVGID_41_" overflow="visible"/></clipPath><g class="st21"><defs><path id="SVGID_43_" transform="rotate(-45.001 600.175 690.665)" d="M76.8-263.4h1046.7v1908H76.8z"/></defs><clipPath id="SVGID_44_"><use xlink:href="#SVGID_43_" overflow="visible"/></clipPath><path transform="rotate(-45.001 88.853 35.083)" class="st22" d="M75.6 24.3h26.6v21.6H75.6z"/></g></g><g><defs><path id="SVGID_45_" d="M43.3 45.7l-18.4 3.5c-1 .2-2-.4-2.1-1.5-.2-1 .4-2 1.5-2.1L42.7 42c1-.2 2 .4 2.1 1.5.3 1-.4 2-1.5 2.2"/></defs><clipPath id="SVGID_46_"><use xlink:href="#SVGID_45_" overflow="visible"/></clipPath><g class="st23"><defs><path id="SVGID_47_" transform="rotate(-45.001 545.111 701.153)" d="M21.8-252.9h1046.7v1908H21.8z"/></defs><clipPath id="SVGID_48_"><use xlink:href="#SVGID_47_" overflow="visible"/></clipPath><path transform="rotate(-45.001 33.79 45.571)" class="st24" d="M20.5 34.7h26.6v21.6H20.5z"/></g></g></svg>