<svg xmlns="http://www.w3.org/2000/svg" viewBox="0 0 80 80"><path d="M68.9 73.7H11.1c-2.6 0-4.8-2.1-4.8-4.8V11.1c0-2.6 2.1-4.8 4.8-4.8h57.8c2.6 0 4.8 2.1 4.8 4.8v57.8c0 2.7-2.1 4.8-4.8 4.8zM11.1 8.8c-1.3 0-2.3 1-2.3 2.3v57.8c0 1.3 1 2.3 2.3 2.3h57.8c1.3 0 2.3-1 2.3-2.3V11.1c0-1.3-1-2.3-2.3-2.3H11.1z"/><path d="M23.2 27.6c1.8-.3 4.2-.5 7.7-.5s6 .7 7.7 2c1.6 1.3 2.7 3.4 2.7 5.8 0 2.5-.8 4.6-2.3 6-1.9 1.8-4.8 2.7-8.2 2.7-.7 0-1.4 0-1.9-.1v9h-5.7V27.6zm5.7 11.5c.5.1 1.1.1 1.9.1 3 0 4.9-1.5 4.9-4.1 0-2.3-1.6-3.7-4.5-3.7-1.2 0-1.9.1-2.4.2v7.5zM44 47.5c1 .6 3.2 1.4 4.9 1.4 1.7 0 2.4-.6 2.4-1.5s-.6-1.4-2.7-2.1c-3.8-1.3-5.2-3.3-5.2-5.5 0-3.4 2.9-6 7.5-6 2.1 0 4 .5 5.2 1l-1 3.9c-.8-.4-2.4-1-4-1-1.4 0-2.2.6-2.2 1.5s.7 1.3 3 2.1c3.5 1.2 4.9 3 5 5.7 0 3.4-2.7 5.9-7.9 5.9-2.4 0-4.5-.5-5.9-1.3l.9-4.1z"/></svg>