<svg id="Capa_1" xmlns="http://www.w3.org/2000/svg" xmlns:xlink="http://www.w3.org/1999/xlink" viewBox="0 0 80 80"><style>.st0{clip-path:url(#SVGID_2_)}.st1{clip-path:url(#SVGID_4_)}</style><defs><path id="SVGID_1_" d="M46.5 58.6l13.1-21.3 5.5-4.3-18.6 25.6zM24.9 38.5h30.2L40 65.3 24.9 38.5zm-10.1-5.6l5.5 4.3 13.1 21.3-18.6-25.6zm2.3-14.3l9.6 4.6-6.8 9.8-8.6-6.6 5.8-7.8zm32.2-5.8l8.8 3.8-8.8 4.1H30.7l-8.8-4.1 8.7-3.8h18.7zM55.9 35H24.1l6.5-11.5h18.7L55.9 35zm12.7-8.6L60 33l-6.8-9.9 9.6-4.6 5.8 7.9zm-5.3-10.9l-11.4-4.9H28.1l-11.4 4.9L7.5 26 40 69.4 72.5 26l-9.2-10.5z"/></defs><use xlink:href="#SVGID_1_" overflow="visible" fill-rule="evenodd" clip-rule="evenodd"/><clipPath id="SVGID_2_"><use xlink:href="#SVGID_1_" overflow="visible"/></clipPath><g class="st0"><defs><path id="SVGID_3_" d="M-14.9-13.8H95V96.1H-14.9z"/></defs><use xlink:href="#SVGID_3_" overflow="visible"/><clipPath id="SVGID_4_"><use xlink:href="#SVGID_3_" overflow="visible"/></clipPath><path class="st1" d="M7 10.1h66.1v59.8H7z"/></g></svg>