<?xml version="1.0" encoding="utf-8"?>
<!-- Generator: Adobe Illustrator 19.2.0, SVG Export Plug-In . SVG Version: 6.00 Build 0)  -->
<svg version="1.1" id="Capa_1" xmlns="http://www.w3.org/2000/svg" xmlns:xlink="http://www.w3.org/1999/xlink" x="0px" y="0px"
	 viewBox="0 0 20 20" style="enable-background:new 0 0 20 20;" xml:space="preserve">
<style type="text/css">
	.st0{fill:#1E1E24;}
</style>
<path class="st0" d="M18.6,12c0.1-0.6,0.2-1.3,0.2-1.9c0-4.9-3.9-8.9-8.7-8.9c-0.5,0-1,0-1.5,0.1C7.8,0.8,6.9,0.5,5.9,0.5
	c-2.8,0-5,2.3-5,5.2c0,1,0.3,1.9,0.7,2.6c-0.1,0.6-0.2,1.2-0.2,1.8c0,4.9,3.9,8.9,8.7,8.9c0.5,0,1.1,0,1.6-0.1
	c0.7,0.4,1.5,0.6,2.4,0.6c2.8,0,5-2.3,5-5.2C19.1,13.5,18.9,12.7,18.6,12z M14.6,14.4c-0.4,0.6-1,1.1-1.8,1.4
	c-0.8,0.3-1.7,0.5-2.7,0.5c-1.2,0-2.3-0.2-3.1-0.7c-0.6-0.3-1.1-0.8-1.4-1.3C5.2,13.7,5,13.2,5,12.7c0-0.3,0.1-0.6,0.4-0.8
	c0.2-0.2,0.5-0.3,0.9-0.3c0.3,0,0.6,0.1,0.8,0.3c0.2,0.2,0.4,0.4,0.5,0.8c0.1,0.4,0.3,0.7,0.5,0.9c0.2,0.2,0.4,0.4,0.7,0.6
	c0.3,0.2,0.7,0.2,1.3,0.2c0.7,0,1.3-0.2,1.7-0.5c0.4-0.3,0.6-0.7,0.6-1.1c0-0.4-0.1-0.6-0.3-0.8c-0.2-0.2-0.5-0.4-0.9-0.5
	c-0.4-0.1-0.9-0.3-1.6-0.4c-0.9-0.2-1.7-0.4-2.3-0.7C6.6,9.9,6.1,9.5,5.8,9C5.4,8.5,5.2,7.9,5.2,7.2c0-0.7,0.2-1.3,0.6-1.8
	c0.4-0.5,0.9-0.9,1.7-1.2C8.2,3.9,9.1,3.8,10,3.8c0.8,0,1.5,0.1,2,0.3c0.6,0.2,1.1,0.4,1.4,0.7c0.4,0.3,0.7,0.6,0.8,1
	c0.2,0.3,0.3,0.7,0.3,1c0,0.3-0.1,0.6-0.4,0.9c-0.2,0.3-0.5,0.4-0.9,0.4c-0.3,0-0.6-0.1-0.7-0.2c-0.2-0.2-0.3-0.4-0.5-0.7
	c-0.2-0.4-0.5-0.8-0.8-1C11,5.9,10.6,5.8,9.9,5.8c-0.6,0-1.1,0.1-1.5,0.4C8,6.4,7.8,6.7,7.8,7c0,0.2,0,0.4,0.2,0.5
	c0.1,0.2,0.3,0.3,0.5,0.4C8.8,8.1,9,8.1,9.2,8.2c0.2,0.1,0.7,0.2,1.2,0.3c0.7,0.2,1.3,0.3,1.9,0.5c0.6,0.2,1.1,0.4,1.5,0.7
	c0.4,0.3,0.7,0.6,1,1.1c0.2,0.4,0.4,1,0.4,1.6C15.2,13.1,15,13.8,14.6,14.4z"/>
</svg>
